<svg width="425" height="187" viewBox="0 0 425 187" fill="none" xmlns="http://www.w3.org/2000/svg">
<path d="M187.791 133.999C290.413 133.999 271.802 133.999 425 133.999C331.105 109.265 342.622 2.82296e-07 240 4.76806e-06C137.378 9.25382e-06 148 92 5.8573e-06 133.999C132.442 133.999 85.1685 133.999 187.791 133.999Z" fill="white"/>
<path d="M223.45 95.875L255.647 40.12C250.923 39.1075 246.062 38.5 241 38.5C224.8 38.5 209.95 44.2375 198.34 53.6875L223.045 96.55L223.45 95.875ZM305.395 85.75C299.185 66.04 284.132 50.245 264.895 42.955L240.19 85.75H305.395ZM307.15 92.5H256.593L258.55 95.875L290.68 151.563C301.75 139.548 308.5 123.618 308.5 106C308.5 101.343 308.027 96.8875 307.15 92.5ZM217.645 106L191.32 60.4375C180.317 72.4525 173.5 88.3825 173.5 106C173.5 110.658 173.973 115.113 174.85 119.5H225.407L217.645 106ZM176.605 126.25C182.815 145.96 197.868 161.755 217.105 169.045L241.81 126.25H176.605ZM252.677 126.25L226.353 171.88C231.077 172.893 235.938 173.5 241 173.5C257.2 173.5 272.05 167.763 283.66 158.313L258.955 115.45L252.677 126.25Z" fill="url(#paint0_radial)"/>
<defs>
<radialGradient id="paint0_radial" cx="0" cy="0" r="1" gradientUnits="userSpaceOnUse" gradientTransform="translate(241 106) rotate(90) scale(67.5)">
<stop stop-color="#7D1774"/>
<stop offset="1" stop-color="#731FA3"/>
</radialGradient>
</defs>
</svg>
