<svg width="104" height="104" viewBox="0 0 104 104" fill="none" xmlns="http://www.w3.org/2000/svg">
<g clip-path="url(#clip0)">
<path d="M101.857 27.0348C100.658 22.5795 97.1457 19.0677 92.6913 17.868C84.5528 15.6408 51.999 15.6408 51.999 15.6408C51.999 15.6408 19.446 15.6408 11.3075 17.7831C6.93875 18.982 3.34044 22.5803 2.14153 27.0348C0 35.1724 0 52.0492 0 52.0492C0 52.0492 0 69.0109 2.14153 77.0636C3.34123 81.5181 6.85306 85.0307 11.3083 86.2304C19.5317 88.4576 51.9998 88.4576 51.9998 88.4576C51.9998 88.4576 84.5528 88.4576 92.6913 86.3153C97.1465 85.1164 100.658 81.6038 101.858 77.1493C104 69.0109 104 52.1349 104 52.1349C104 52.1349 104.085 35.1724 101.857 27.0348Z" fill="#7E1773"/>
<path d="M41.6341 67.6407L68.7045 52.0493L41.6341 36.4578V67.6407Z" fill="white"/>
</g>
<defs>
<clipPath id="clip0">
<rect width="104" height="104" fill="white"/>
</clipPath>
</defs>
</svg>
